Patient4_TMGait_0pt6_01_right_30_EMG.mot
version=1
nRows=36
nColumns=33
inDegrees=no
endheader
time	1LAddLong	2LGlutMax	3LGlutMed	4LIliopsoas	5LSemiMemb	6LBicFemLong	7LRecFem	8LVastMed	9LVastLat	10LGasMed	11LTibAnt	12lTibPost	13LPeroneusLong	14LSol	15LExtDigLong	16LFlexDigLong	17RAddLong	18RGlutMax	19RGlutMed	20RIliopsoas	21RSemiMemb	22RBicFemLong	23RRecFem	24RVastMed	25RVastLat	26RGasMed	27RTibAnt	28RTibPost	29RPeroneusLong	30RSol	31RExtDigLong	32RFlexDigLong
36.735	0.012512	0.07782	0.00473	0.03418	0.033722	-0.089569	-0.050507	-0.001221	0.20721	0.029144	-0.093536	-0.004425	-0.058441	0.048676	0.058136	-0.003967	0.013885	-0.2977	0.059814	-0.052643	0.2243	-0.03891	-0.12924	-0.020294	0.026245	0.019073	0.10513	-0.001373	0.18341	-0.060272	-0.001984	0.000458
36.736	0.003662	0.054169	-0.043793	0.028992	0.12421	0.017548	-0.077972	-0.010376	0.23285	0.006866	-0.081787	-0.001068	0.10223	0.058594	0.073853	0.00412	0.011597	-0.327	-0.25116	0.083466	0.215	-0.089111	-0.10269	-0.031128	0.027161	0.014343	0.09491	-0.001373	0.12253	-0.096283	-0.002594	-0.003662
36.737	-0.005646	0.082397	-0.058594	0.010529	0.14664	0.072327	-0.18021	0.005646	0.13214	0.000916	-0.03952	-0.002747	0.17502	0.08316	0.18051	0.002747	0.008392	-0.31754	-0.045166	0.086365	0.19287	-0.07782	-0.080719	-0.036469	0.03418	0.002747	-0.1593	0.000763	-0.12146	-0.095215	0.005035	-0.004272
36.738	-0.012512	0.053864	-0.062714	-0.00473	0.06134	0.10681	-0.12726	-0.039368	-0.081177	-0.023804	0.028992	0.000763	0.17624	0.096588	0.076904	0.009308	0.006866	-0.21332	0.19104	0.064392	0.17944	-0.029907	-0.095062	-0.049744	0.026398	0.001526	0.10956	-0.003357	-0.36087	-0.024872	-0.001831	0.00061
36.739	-0.019684	-0.035553	-0.032043	-0.007019	0.038147	0.08316	-0.059814	-0.013885	-0.23743	-0.037842	0.013275	-0.025024	0.091858	0.076141	0.003967	-0.005341	0.010223	-0.11337	-0.21713	0.069427	0.15228	-0.000305	-0.073395	-0.080109	0.024109	0.00061	0.3006	-0.010376	0.43167	0.037689	-0.002289	-0.013733
36.74	-0.027924	-0.031128	-0.04776	-0.000763	0.015869	0.12222	-0.039825	-0.023804	-0.18204	-0.022888	0.044556	0.003357	0.034485	0.079651	-0.084381	0.003662	0.009155	-0.25757	-0.15381	0.090485	0.14313	0.025482	-0.082855	-0.044556	0.023499	0.003052	0.11398	-0.003662	0.50125	-0.054169	-0.00061	-0.003204
36.741	-0.021362	-0.048981	-0.023499	0.015564	-0.022278	0.064545	0.007477	-0.005798	-0.098724	-0.003967	0.077667	-0.008698	0.067596	0.088043	-0.16602	-0.005798	0.0177	-0.29999	-0.04776	0.11414	0.11856	0.017853	-0.1059	-0.055084	0.020142	0.005646	-0.097656	-0.003204	0.086365	-0.084991	-0.004578	-0.005188
36.742	-0.002899	-0.071411	-0.005493	0.016937	-0.053101	0.016937	0.013275	-0.010986	-0.039673	-0.006409	0.06485	-0.014648	-0.025482	0.085449	-0.16602	-0.00946	0.001068	-0.23712	-0.09552	0.048218	0.11902	-0.020142	-0.12665	-0.005798	0.030518	0.01709	-0.16769	-0.003357	-0.4187	-0.004883	-0.003357	-0.002289
36.743	-0.007477	-0.027313	0.057983	0.012817	-0.076141	0.19028	0.10407	-0.00412	0.004883	0.01358	0.028381	-0.016785	0.007477	0.045319	0.20203	-0.002899	-0.008392	-0.19852	0.024719	-0.025635	0.10574	-0.052185	-0.076447	-0.02182	0.015411	0.007782	-0.13519	-0.004578	0.11993	-0.056305	0.000153	-0.010681
36.744	0.002747	0.12528	0.023804	0.033112	-0.07782	0.42862	0.14572	-0.000305	-0.029755	0.034637	0.025482	-0.005646	0.010681	0.050507	0.063629	0.001221	-0.006256	-0.17731	0	0.020447	0.12131	-0.10086	-0.11429	-0.020752	0.0177	-0.012817	-0.06897	-0.010681	0.38895	-0.02243	-0.000305	-0.007019
36.745	0.004272	0.20416	0.003662	0.03418	-0.03006	0.54947	0.12482	0.015106	-0.081635	0.025024	0.097809	-0.006104	0.040131	0.012207	-0.089264	-0.006256	-0.005188	-0.2385	-0.10025	0.015717	0.14572	-0.1648	-0.12253	-0.014801	0.020294	-0.018158	-0.089569	-0.00473	0.060272	-0.023956	0.000458	-0.010071
36.746	0.008087	0.20874	0.007935	0.00824	0.031128	0.44357	0.018768	0.011292	-0.096588	0.015106	0.098724	-0.003357	0.054626	0.061035	-0.023193	-0.001373	-0.013123	-0.1947	-0.13153	-0.010223	0.17883	-0.081635	-0.13306	-0.009308	0.042725	-0.010681	-0.090027	-0.007019	0.033722	0.014648	-0.002747	-0.014343
36.747	0.030823	0.30228	0.006561	0.009003	0.10742	0.37308	-0.040436	0.005798	-0.074005	0.000763	0.088959	0.00351	0.06958	0.062714	-0.12802	0.001678	-0.015564	-0.24674	-0.112	-0.020447	0.2005	0.035706	-0.1152	0.020447	0.045776	-0.014954	-0.047607	-0.003052	-0.020599	0.030365	0.000305	-0.016174
36.748	0.023041	0.34821	0.015259	-0.010071	0.077972	0.3212	0.071716	-0.002747	0.015564	-0.007782	-0.006409	-0.007019	0.13855	0.014801	-0.22507	-0.001831	-0.009918	-0.24918	-0.14069	-0.052338	0.20233	0.15091	-0.11887	0.02121	0.03952	-0.027466	0.04715	-0.003052	-0.028992	-0.13016	-0.000916	-0.018921
36.749	0.026093	0.42114	0.02243	0.005951	0.045166	0.30746	0.070953	0.000305	0.10407	-0.023804	-0.19791	0.004425	0.18494	0.025635	-0.14267	-0.002594	-0.00061	-0.23834	-0.25497	-0.033417	0.20859	0.19608	-0.10803	0.02594	0.040131	-0.057068	0.094299	-0.002594	-0.14267	-0.19775	-0.001831	-0.020905
36.75	0.023346	0.49667	0.04425	0.030212	-0.004425	0.31036	0.071106	0.005798	0.14648	-0.001526	-0.055084	-0.004578	0.11551	-0.004883	-0.019226	-0.00946	0.008392	-0.21744	-0.17471	0.008545	0.19363	0.20905	-0.11353	-0.019073	0.022583	-0.061188	0.071564	0.001221	-0.16541	-0.057831	0.006104	-0.023651
36.751	0.032501	0.41184	0.043182	0.018005	-0.006409	0.022583	0.031891	0.00061	0.18845	0.02594	-0.009613	0.00473	0.053558	0.042419	0.04776	-0.007629	0.018463	-0.23651	-0.19028	-0.040588	0.19592	0.15411	-0.085602	-0.00351	0.010223	-0.04364	0.044403	0.002594	-0.17059	0.15549	-0.002441	-0.010834
36.752	0.036163	0.31754	0.021515	0.019073	0.076294	-0.54245	0.00412	-0.000458	0.23682	0.02182	0.020447	0.002594	-0.022125	0.085144	0.15442	-0.007019	0.026245	-0.24811	-0.18356	-0.019379	0.18662	0.17364	-0.053558	0.003052	0.009003	-0.014648	0.019226	0.009613	-0.24277	0.023651	-0.001068	-0.019379
36.753	0.048676	0.38315	0.019836	0.002136	0.14313	-0.79346	-0.03952	-0.013275	0.24124	0.03418	0.083008	0.000458	-0.09079	0.077362	0.14893	-0.009918	0.005493	-0.23407	-0.18005	0.028839	0.18433	0.15152	-0.077362	0.019989	0.001526	-0.000458	0.009003	-0.011444	-0.30991	-0.36591	0.001373	-0.012817
36.754	0.032501	0.39291	0.008698	0.021057	0.10468	-0.84091	-0.076904	0.001068	0.30762	0.019989	0.11124	0.001831	-0.002289	0.047913	0.14862	-0.001373	0.002441	-0.21378	-0.22919	-0.081482	0.17929	0.12848	-0.10544	0.038605	0.011749	-0.003052	0.001526	-0.103	-0.32654	-0.34927	0.007019	-0.008087
36.755	-0.008698	0.39337	0.001526	0.018311	-0.015411	-0.48157	-0.007172	0.021515	0.31158	-0.005646	0.077972	0.001526	0.26688	0.028687	0.10315	-0.006256	0.014801	-0.25177	-0.1564	-0.099792	0.15091	0.07019	-0.07843	-0.001221	-0.007477	0.001984	-0.016479	0.032196	-0.16022	-0.041809	0.000305	-0.003357
36.756	-0.024872	0.38132	-0.02655	0.005951	-0.10834	-0.09964	0.041046	0.021057	0.2594	0.004425	0.052032	0.005188	0.063324	0.06012	0.045319	-0.003357	0.002747	-0.20783	-0.24277	-0.088501	0.15045	-0.050507	-0.084076	0.011444	0.001221	-0.003967	0.003967	0.029144	0.32303	0.15305	-0.000916	-0.003967
36.757	-0.023346	0.31082	-0.032806	0.00061	-0.11734	0.11566	-0.082703	0.016785	0.15091	0.005035	0.023193	0.005798	0.10696	0.047913	-0.017242	-0.004578	0.014801	-0.18539	-0.22629	-0.14389	0.16113	-0.099945	-0.033112	0.018005	-0.014954	0.011444	0.007019	-0.006104	0.54138	0.57022	-0.000763	-0.000153
36.758	-0.02655	0.25711	-0.049896	0.008087	-0.073853	0.083313	-0.23987	0.005493	0.053864	0.053406	0.019226	-0.005035	0.25055	0.026398	-0.075836	-0.000458	0.016022	-0.16449	-0.059509	-0.15656	0.14175	-0.071411	-0.035858	-0.037689	-0.00351	0.018616	0.024719	-0.019226	0.23605	0.50369	-0.004883	0.000458
36.759	-0.024414	0.28046	-0.069275	0.010223	0.009613	-0.045929	-0.19608	-0.002441	-0.11154	0.028076	0.021667	-0.004578	-0.046844	0.014191	-0.10254	-0.001526	0.030212	-0.13977	-0.027008	-0.001221	0.13001	-0.042572	-0.005188	-0.04776	-0.018768	0.01236	0.06546	-0.001984	0.011139	0.27283	-0.002594	-0.000153
36.76	-0.017242	0.41443	-0.08255	0.010834	0.056152	-0.15045	-0.038605	-0.006561	-0.21103	0.021362	0.046997	0.00061	-0.15137	0.020905	-0.037842	-0.012054	0.024414	-0.12161	-0.40649	0.24017	0.12466	-0.033875	-0.05127	-0.058289	-0.027771	-0.014801	0.088654	-0.014496	-0.177	0.26459	-0.002899	-0.006866
36.761	-0.001526	0.41489	-0.063934	0.028381	0.04837	-0.12421	0.096436	-0.019684	-0.22842	-0.034332	0.014954	0.005493	-0.089417	0.056305	0.046387	0.001526	0.030975	-0.092468	0.079651	0.29755	0.099487	-0.023499	-0.055237	-0.062256	-0.021515	-0.024414	0.095062	-0.054626	-0.35812	-0.25574	-0.002747	-0.010071
36.762	-0.009613	0.38498	-0.051575	0.029449	0.093231	-0.033875	0.1889	-0.026855	-0.10559	-0.029602	-0.094299	0.013275	0.09491	0.046234	0.089722	0.005646	0.013885	-0.16159	-0.011444	0.14313	0.10407	-0.019836	-0.028381	-0.082245	-0.017548	-0.037079	0.063324	-0.00473	-0.43304	-0.22537	-0.001221	-0.012512
36.763	-0.00824	0.36713	-0.031586	0.032196	0.063934	-0.090027	0.19165	-0.009308	-0.054779	-0.019226	-0.19073	-0.000458	0.10941	0.045319	0.033722	0.003357	0.010223	-0.18951	-0.52917	0.079193	0.097351	0.033264	-0.036469	-0.083771	-0.012054	-0.014191	0.037537	-0.020447	-0.1471	0.11231	0.001373	-0.011139
36.764	-0.002747	0.36377	-0.05127	0.013885	0.020905	-0.41885	0.19119	0.013275	-0.023804	-0.016022	-0.16586	-0.001678	0.10895	0.074158	0.085144	0.002747	0.003052	-0.13443	-0.47287	-0.036621	0.085754	0.059509	-0.051575	-0.045471	0.005798	-0.020447	-0.013428	-0.40451	0.34622	-0.011902	-0.001831	-0.009613
36.765	-0.011139	0.3952	-0.056152	0.008545	-0.042419	-0.58227	0.1416	0.014038	0.015564	-0.003052	-0.074921	0.004883	-0.075226	0.07309	-0.054169	0.003204	0.000458	-0.082703	0.12924	-0.084229	0.091858	0.062866	-0.05127	-0.035858	0.009003	-0.029907	-0.02655	0.11917	0.18036	-0.68817	0.000153	-0.011749
36.766	-0.004272	0.40634	-0.015259	0.002441	-0.088196	-0.29266	0.081024	0.012054	0.03952	-0.00061	0.058746	0.007172	0.023956	0.077667	0.19562	0.007019	-0.009308	-0.16937	-0.042267	-0.007935	0.08728	0.0383	-0.05661	-0.013123	0.007782	-0.027466	-0.022583	0.23132	-0.067749	-1.2234	-0.00061	-0.023346
36.767	-0.007477	0.37399	0.005035	0.001678	-0.091705	-0.14374	0.060425	0.006561	0.075378	-0.027618	0.15823	0.007629	0.46295	0.10452	0.10941	0.00351	-0.002594	-0.2446	-0.068207	0.069885	0.073853	0.019989	-0.057831	-0.015717	0.01297	-0.024109	0.020294	0.064697	0.081024	-0.67001	-0.001526	-0.02182
36.768	0.001526	0.34729	0.001221	-0.007172	-0.047455	-0.080414	0.073853	0.017395	0.14206	-0.02655	0.33539	0.005951	0.20889	0.090027	-0.06424	0.000458	-0.004578	-0.22324	-0.05249	0.14481	0.062256	0.038147	-0.057373	-0.031586	-0.000153	-0.009308	0.055847	-0.26947	-0.096893	-0.001678	-0.001984	-0.024872
36.769	0.007935	0.3746	0.003204	0.011292	-0.02243	-0.074921	-0.019379	0.007172	0.20828	0.005646	0.31067	0.003204	-0.099182	0.035095	0.024414	-0.002136	-0.012512	-0.24994	-0.11887	0.060883	0.075226	0.014343	-0.076294	0.002136	0.003204	0.009003	0.036163	0.22492	-0.30975	-0.19898	-0.001221	-0.023804
36.77	0.000305	0.42252	0.017395	0.027008	0.037537	-0.030518	-0.083466	-0.018921	0.36468	0.006104	0.23086	0.009003	-0.19974	0.06134	-0.66315	-0.009003	-0.013885	-0.22949	-0.16632	-0.043945	0.093384	0.004883	-0.058899	0.030365	0.003815	0.008545	-0.006409	0.18265	-0.17044	-0.29831	-0.002594	-0.023804
